<svg width="50" height="50" viewBox="0 0 50 50" fill="none" xmlns="http://www.w3.org/2000/svg">
<circle cx="25" cy="25" r="25" fill="white" fill-opacity="0.1"/>
<path d="M28.9592 17.967V16.667C28.9592 16.3253 28.6758 16.042 28.3342 16.042C27.9925 16.042 27.7092 16.3253 27.7092 16.667V17.917H22.2925V16.667C22.2925 16.3253 22.0092 16.042 21.6675 16.042C21.3258 16.042 21.0425 16.3253 21.0425 16.667V17.967C18.7925 18.1753 17.7008 19.517 17.5342 21.5087C17.5175 21.7503 17.7175 21.9503 17.9508 21.9503H32.0508C32.2925 21.9503 32.4925 21.742 32.4675 21.5087C32.3008 19.517 31.2092 18.1753 28.9592 17.967Z" fill="white"/>
<path opacity="0.4" d="M32.5 24.0331V25.4831C32.5 25.9914 32.05 26.3831 31.55 26.2997C31.3167 26.2664 31.075 26.2414 30.8333 26.2414C28.3083 26.2414 26.25 28.2997 26.25 30.8247C26.25 31.2081 26.4 31.7414 26.5583 32.2248C26.7417 32.7664 26.3417 33.3247 25.7667 33.3247H21.6667C18.75 33.3247 17.5 31.6581 17.5 29.1581V24.0247C17.5 23.5664 17.875 23.1914 18.3333 23.1914H31.6667C32.125 23.1997 32.5 23.5747 32.5 24.0331Z" fill="white"/>
<path d="M30.8333 27.5C28.9917 27.5 27.5 28.9917 27.5 30.8333C27.5 31.4583 27.675 32.05 27.9833 32.55C28.5583 33.5167 29.6167 34.1667 30.8333 34.1667C32.05 34.1667 33.1083 33.5167 33.6833 32.55C33.9917 32.05 34.1667 31.4583 34.1667 30.8333C34.1667 28.9917 32.675 27.5 30.8333 27.5ZM32.5583 30.475L30.7833 32.1167C30.6667 32.225 30.5083 32.2833 30.3583 32.2833C30.2 32.2833 30.0417 32.225 29.9167 32.1L29.0917 31.275C28.85 31.0333 28.85 30.6333 29.0917 30.3917C29.3333 30.15 29.7333 30.15 29.975 30.3917L30.375 30.7917L31.7083 29.5583C31.9583 29.325 32.3583 29.3417 32.5917 29.5917C32.825 29.8417 32.8083 30.2333 32.5583 30.475Z" fill="white"/>
<path d="M22.0833 27.4999C21.8667 27.4999 21.65 27.4083 21.4917 27.2583C21.3417 27.0999 21.25 26.8833 21.25 26.6666C21.25 26.4499 21.3417 26.2333 21.4917 26.0749C21.6833 25.8833 21.975 25.7916 22.25 25.8499C22.3 25.8583 22.35 25.8749 22.4 25.8999C22.45 25.9166 22.5 25.9416 22.55 25.9749C22.5917 26.0083 22.6333 26.0416 22.675 26.0749C22.825 26.2333 22.9167 26.4499 22.9167 26.6666C22.9167 26.8833 22.825 27.0999 22.675 27.2583C22.6333 27.2916 22.5917 27.3249 22.55 27.3582C22.5 27.3916 22.45 27.4166 22.4 27.4333C22.35 27.4583 22.3 27.4749 22.25 27.4833C22.1917 27.4916 22.1333 27.4999 22.0833 27.4999Z" fill="white"/>
<path d="M24.9993 27.4997C24.7827 27.4997 24.566 27.4081 24.4077 27.2581C24.2577 27.0997 24.166 26.8831 24.166 26.6664C24.166 26.4497 24.2577 26.2331 24.4077 26.0748C24.7243 25.7664 25.2827 25.7664 25.591 26.0748C25.741 26.2331 25.8327 26.4497 25.8327 26.6664C25.8327 26.8831 25.741 27.0997 25.591 27.2581C25.4327 27.4081 25.216 27.4997 24.9993 27.4997Z" fill="white"/>
<path d="M22.0833 30.4167C21.8667 30.4167 21.65 30.325 21.4917 30.175C21.3417 30.0167 21.25 29.8001 21.25 29.5834C21.25 29.3667 21.3417 29.1501 21.4917 28.9917C21.575 28.9167 21.6583 28.8584 21.7667 28.8167C22.075 28.6834 22.4417 28.7584 22.675 28.9917C22.825 29.1501 22.9167 29.3667 22.9167 29.5834C22.9167 29.8001 22.825 30.0167 22.675 30.175C22.5167 30.325 22.3 30.4167 22.0833 30.4167Z" fill="white"/>
</svg>
