<svg width="20" height="20" viewBox="0 0 20 20" fill="none" xmlns="http://www.w3.org/2000/svg">
<path d="M12.3721 18.5H7.62791C3.33442 18.5 1.5 16.6656 1.5 12.3721V7.62791C1.5 3.33442 3.33442 1.5 7.62791 1.5H12.3721C16.6656 1.5 18.5 3.33442 18.5 7.62791V12.3721C18.5 16.6656 16.6656 18.5 12.3721 18.5ZM7.62791 2.68605C3.98279 2.68605 2.68605 3.98279 2.68605 7.62791V12.3721C2.68605 16.0172 3.98279 17.314 7.62791 17.314H12.3721C16.0172 17.314 17.314 16.0172 17.314 12.3721V7.62791C17.314 3.98279 16.0172 2.68605 12.3721 2.68605H7.62791Z" fill="white"/>
<path d="M8.0391 6.50441C7.97837 6.22954 7.89895 6.05717 7.74946 5.86616C7.44581 5.46085 6.97397 5.25586 6.37134 5.25586C5.82476 5.25586 5.35293 5.42823 5.03059 5.74037C4.66154 6.10376 4.46533 6.63952 4.46533 7.27311C4.46533 7.89739 4.66154 8.44246 5.00724 8.79187C5.33892 9.1273 5.82009 9.30434 6.39003 9.30434C6.95529 9.30434 7.40843 9.1273 7.69807 8.79653C7.89428 8.56825 7.99705 8.33997 8.08581 7.94397L7.11412 7.79955C7.08609 7.99522 7.05339 8.08839 6.97398 8.20021C6.8385 8.38656 6.61893 8.49371 6.362 8.49371C5.78272 8.49371 5.43702 8.03249 5.43702 7.27311C5.43702 6.50441 5.76871 6.05717 6.33864 6.05717C6.7404 6.05717 6.98799 6.26681 7.07675 6.69076L8.0391 6.50441Z" fill="white"/>
<path d="M10.6399 9.21582C11.0136 9.21582 11.2425 9.22514 11.4154 9.24843V8.35394C11.1958 8.3819 11.037 8.38656 10.6399 8.38656H9.50937V6.0758C9.50937 5.71242 9.51404 5.58197 9.54674 5.33972H8.52834C8.55637 5.56334 8.56571 5.76367 8.56571 6.08978V8.54961C8.56571 8.86175 8.55637 9.06674 8.52834 9.22979C8.70586 9.22048 8.89739 9.21582 9.21973 9.21582H10.6399Z" fill="white"/>
<path d="M7.1468 10.7751C7.17483 10.9847 7.18417 11.1291 7.18417 11.4785V13.0812C7.18417 13.6682 6.91789 13.9477 6.3573 13.9477C5.81072 13.9477 5.54444 13.6682 5.54444 13.0812V11.4785C5.54444 11.1338 5.55379 10.9474 5.58182 10.7751H4.57275C4.60078 10.9521 4.61013 11.1571 4.61013 11.4785V13.0718C4.61013 13.5936 4.75027 13.9989 5.02123 14.2878C5.30152 14.5813 5.77335 14.7443 6.35263 14.7443C7.47848 14.7443 8.11849 14.1434 8.11849 13.0812V11.4785C8.11849 11.1431 8.12783 10.9754 8.15586 10.7751H7.1468Z" fill="white"/>
<path d="M10.6865 14.6512C11.4994 14.6512 11.9759 14.2552 11.9759 13.5843C11.9759 13.2768 11.8731 13.0252 11.6723 12.8482C11.5368 12.7317 11.4153 12.6758 11.1864 12.6246C11.3779 12.5547 11.462 12.5081 11.5648 12.4196C11.7423 12.2612 11.8358 12.0376 11.8358 11.7534C11.8358 11.1384 11.392 10.7751 10.6352 10.7751H9.41121C9.02814 10.7751 8.96273 10.7751 8.72448 10.7611C8.75251 10.9847 8.76185 11.185 8.76185 11.4319V13.9803C8.76185 14.3064 8.75251 14.4648 8.72448 14.6651C8.92536 14.6558 9.06084 14.6512 9.41588 14.6512H10.6865ZM9.67749 12.2705V11.5391H10.4903C10.7566 11.5391 10.9014 11.6695 10.9014 11.8978C10.9014 12.1261 10.7473 12.2705 10.4997 12.2705H9.67749ZM9.67749 13.0159H10.5324C10.8314 13.0159 11.0089 13.1743 11.0089 13.4445C11.0089 13.7194 10.8314 13.8825 10.5371 13.8825H9.67749V13.0159Z" fill="white"/>
<path d="M12.3304 13.4818C12.3631 13.6961 12.3864 13.8033 12.4331 13.9151C12.5312 14.1806 12.7041 14.381 12.9377 14.5114C13.1899 14.6558 13.5824 14.7397 13.9794 14.7397C14.526 14.7397 14.9371 14.6046 15.2081 14.3437C15.423 14.134 15.5351 13.8359 15.5351 13.4865C15.5351 13.0579 15.3669 12.7457 15.0305 12.5361C14.853 12.4243 14.6288 12.3451 14.2737 12.2705C13.7225 12.1587 13.7225 12.1587 13.6291 12.1168C13.4796 12.0469 13.4095 11.9491 13.4095 11.8186C13.4095 11.6043 13.6197 11.4506 13.9047 11.4506C14.2597 11.4506 14.4279 11.5764 14.484 11.8792L15.4743 11.772C15.4136 11.5065 15.3576 11.3667 15.2408 11.213C14.9885 10.8636 14.5354 10.6819 13.9421 10.6819C13.0218 10.6819 12.4425 11.1338 12.4425 11.8512C12.4425 12.2286 12.6013 12.5407 12.8956 12.7457C13.0685 12.8669 13.218 12.9228 13.6478 13.0159C14.1336 13.1277 14.2504 13.1604 14.3485 13.2069C14.47 13.2628 14.5447 13.3886 14.5447 13.5331C14.5447 13.7939 14.3298 13.9523 13.9701 13.9523C13.7318 13.9523 13.5356 13.8731 13.4235 13.7334C13.3534 13.6402 13.3207 13.5563 13.3021 13.3886L12.3304 13.4818Z" fill="white"/>
</svg>
