<svg width="24" height="24" viewBox="0 0 24 24" fill="none" xmlns="http://www.w3.org/2000/svg">
<path opacity="0.6" fill-rule="evenodd" clip-rule="evenodd" d="M16.4483 4.0516C15.603 4.25408 14.9407 5.10419 14.9407 5.98677C14.9407 6.87788 15.6056 7.72334 16.4638 7.92352C17.5561 8.17826 18.622 7.53218 18.9074 6.4423C19.13 5.59253 18.6633 4.60783 17.8448 4.20016C17.4552 4.00606 16.8896 3.94591 16.4483 4.0516ZM16.2994 9.06071C15.9384 9.12547 15.5988 9.23386 15.3076 9.3772C14.5605 9.74505 14.2323 10.0796 12.9906 11.7382C12.4661 12.4389 12.0068 13.0779 11.97 13.1582C11.8738 13.3679 11.8785 13.6887 11.981 13.9058C12.0961 14.1496 12.2159 14.2733 12.4485 14.3883C12.7962 14.5602 13.191 14.5235 13.5249 14.2882C13.5793 14.2499 13.8441 13.9319 14.1134 13.5815C14.3827 13.231 14.603 12.9503 14.603 12.9577C14.603 12.965 14.3827 13.6247 14.1134 14.4237C13.5952 15.961 13.5655 16.0899 13.6878 16.2734C13.8124 16.4604 13.9086 16.4948 14.3061 16.4951L14.6677 16.4953L14.6776 17.8903C14.687 19.2273 14.6904 19.2916 14.7586 19.4374C14.9276 19.799 15.2031 19.9778 15.6222 19.9981C16.0841 20.0204 16.3999 19.8493 16.5849 19.4766L16.6798 19.2853L16.6896 17.8903L16.6995 16.4953H16.95H17.2004L17.2103 17.8903C17.2197 19.2273 17.2231 19.2916 17.2912 19.4374C17.4603 19.799 17.7358 19.9778 18.1549 19.9981C18.6167 20.0204 18.9326 19.8493 19.1176 19.4766L19.2125 19.2853L19.2223 17.8903L19.2322 16.4953L19.5938 16.4951C19.9913 16.4948 20.0875 16.4604 20.2121 16.2734C20.3344 16.0899 20.3047 15.9609 19.7872 14.4254C19.5182 13.6275 19.3016 12.9713 19.306 12.9673C19.3102 12.9634 19.5037 13.2009 19.7359 13.4952C19.9681 13.7895 20.2182 14.0984 20.2918 14.1817C20.4778 14.3921 20.7026 14.4898 21.0022 14.4901C21.4257 14.4907 21.7489 14.2796 21.9303 13.8841C22.0274 13.6722 22.0222 13.3229 21.9186 13.1027C21.8028 12.8566 20.0064 10.5171 19.6573 10.1577C18.9115 9.38987 17.9909 9.00511 16.9202 9.0137C16.7137 9.01537 16.4343 9.03652 16.2994 9.06071Z" fill="#242424"/>
<path d="M4.52841 5.98677C4.52841 5.10419 5.19068 4.25408 6.03602 4.0516C6.47732 3.94591 7.04292 4.00606 7.43254 4.20016C8.25097 4.60783 8.71766 5.59253 8.49512 6.4423C8.20967 7.53218 7.14378 8.17826 6.05149 7.92352C5.19329 7.72334 4.52841 6.87788 4.52841 5.98677Z" fill="#242424"/>
<path d="M4.04288 10.0724C4.47117 9.54701 5.12926 9.16904 5.83392 9.04377C5.92381 9.0278 6.28608 9.01931 6.63897 9.02489C7.22074 9.03415 7.30891 9.04347 7.5845 9.1251C8.16425 9.29681 8.68717 9.64321 9.05167 10.0971C9.31112 10.4201 10.9395 12.9586 11.0182 13.1627C11.19 13.6079 10.9883 14.1467 10.5645 14.3749C10.303 14.5157 9.97201 14.529 9.70726 14.4093C9.44224 14.2895 9.32304 14.1711 9.04944 13.7558L8.81853 13.4054L8.80934 16.3453L8.80019 19.2853L8.70527 19.4766C8.52031 19.8493 8.20444 20.0204 7.74261 19.9981C7.32347 19.9778 7.04802 19.799 6.87893 19.4374C6.81011 19.2903 6.80751 19.2319 6.79816 17.6397L6.7885 15.9941H6.53766H6.28683L6.27717 17.6397L6.26751 19.2853L6.17259 19.4766C5.98763 19.8493 5.67176 20.0204 5.20993 19.9981C4.79079 19.9778 4.51534 19.799 4.34626 19.4374C4.27588 19.2869 4.27504 19.2544 4.26599 16.3498L4.2568 13.4143L3.99107 13.8116C3.82395 14.0616 3.67699 14.2421 3.595 14.2983C2.92911 14.7543 2.06009 14.3482 2.00404 13.5549C1.99242 13.3909 2.00485 13.2968 2.05476 13.1707C2.13854 12.9589 3.79802 10.3728 4.04288 10.0724Z" fill="#242424"/>
</svg>
