<svg width="10" height="10" viewBox="0 0 10 10" fill="none" xmlns="http://www.w3.org/2000/svg">
<path d="M8.49995 9.5L0.500003 1.5C0.226672 1.22667 0.226672 0.773333 0.500003 0.5C0.773335 0.226667 1.22667 0.226667 1.5 0.5L9.49994 8.5C9.77327 8.77333 9.77327 9.22667 9.49994 9.5C9.22661 9.77333 8.77328 9.77333 8.49995 9.5Z" fill="white"/>
<path d="M0.500057 9.5C0.226726 9.22667 0.226726 8.77333 0.500057 8.5L8.5 0.5C8.77333 0.226667 9.22667 0.226667 9.5 0.5C9.77333 0.773333 9.77333 1.22667 9.5 1.5L1.50005 9.5C1.22672 9.77333 0.773389 9.77333 0.500057 9.5Z" fill="white"/>
</svg>
