<svg width="24" height="24" viewBox="0 0 24 24" fill="none" xmlns="http://www.w3.org/2000/svg">
<path fill-rule="evenodd" clip-rule="evenodd" d="M11.5029 4.0516C10.6658 4.25408 10.01 5.10419 10.01 5.98677C10.01 6.87788 10.6684 7.72334 11.5182 7.92352C12.5998 8.17826 13.6552 7.53218 13.9379 6.4423C14.1582 5.59253 13.6961 4.60783 12.8857 4.20016C12.4999 4.00606 11.9398 3.94591 11.5029 4.0516ZM11.3554 9.06071C10.998 9.12547 10.6617 9.23386 10.3734 9.3772C9.63358 9.74505 9.30853 10.0796 8.07908 11.7382C7.55969 12.4389 7.10487 13.0779 7.06842 13.1582C6.97319 13.3679 6.97787 13.6887 7.07935 13.9058C7.19331 14.1496 7.31195 14.2733 7.5423 14.3883C7.88651 14.5602 8.2775 14.5235 8.60811 14.2882C8.66197 14.2499 8.92419 13.9319 9.19083 13.5815C9.4575 13.231 9.67565 12.9503 9.67565 12.9577C9.67565 12.965 9.45746 13.6247 9.1908 14.4237C8.67769 15.961 8.64833 16.0899 8.76941 16.2734C8.89276 16.4604 8.98803 16.4948 9.38169 16.4951L9.73975 16.4953L9.74951 17.8903C9.75884 19.2273 9.76219 19.2916 9.82966 19.4374C9.99709 19.799 10.2698 19.9778 10.6849 19.9981C11.1422 20.0204 11.455 19.8493 11.6381 19.4766L11.7321 19.2853L11.7418 17.8903L11.7516 16.4953H11.9996H12.2476L12.2574 17.8903C12.2667 19.2273 12.27 19.2916 12.3375 19.4374C12.5049 19.799 12.7777 19.9778 13.1927 19.9981C13.65 20.0204 13.9628 19.8493 14.1459 19.4766L14.2399 19.2853L14.2497 17.8903L14.2594 16.4953L14.6175 16.4951C15.0112 16.4948 15.1064 16.4604 15.2298 16.2734C15.3509 16.0899 15.3215 15.9609 14.809 14.4254C14.5426 13.6275 14.3282 12.9713 14.3325 12.9673C14.3367 12.9634 14.5283 13.2009 14.7582 13.4952C14.9881 13.7895 15.2358 14.0984 15.3087 14.1817C15.4928 14.3921 15.7155 14.4898 16.0122 14.4901C16.4315 14.4907 16.7515 14.2796 16.9311 13.8841C17.0273 13.6722 17.0222 13.3229 16.9195 13.1027C16.8049 12.8566 15.026 10.5171 14.6804 10.1577C13.9419 9.38987 13.0304 9.00511 11.9701 9.0137C11.7657 9.01537 11.489 9.03652 11.3554 9.06071Z" fill="#242424"/>
</svg>
