<svg width="10" height="16" viewBox="0 0 10 16" fill="none" xmlns="http://www.w3.org/2000/svg">
<path fill-rule="evenodd" clip-rule="evenodd" d="M4.50287 0.0515989C3.66581 0.254084 3.01003 1.10419 3.01003 1.98677C3.01003 2.87788 3.66839 3.72334 4.51818 3.92352C5.59977 4.17826 6.65521 3.53218 6.93786 2.4423C7.15822 1.59253 6.6961 0.607833 5.8857 0.200155C5.49989 0.00605636 4.93984 -0.0540879 4.50287 0.0515989ZM4.35541 5.06071C3.99799 5.12547 3.66167 5.23386 3.37337 5.3772C2.63358 5.74505 2.30853 6.07956 1.07908 7.73817C0.559689 8.43888 0.104865 9.07791 0.0684176 9.15824C-0.026814 9.36794 -0.0221327 9.68868 0.0793518 9.90576C0.193309 10.1496 0.311947 10.2733 0.542301 10.3883C0.886513 10.5602 1.2775 10.5235 1.60811 10.2882C1.66197 10.2499 1.92419 9.9319 2.19083 9.58145C2.4575 9.23105 2.67565 8.95034 2.67565 8.95769C2.67565 8.96504 2.45746 9.62472 2.1908 10.4237C1.67769 11.961 1.64833 12.0899 1.76941 12.2734C1.89276 12.4604 1.98803 12.4948 2.38169 12.4951L2.73975 12.4953L2.74951 13.8903C2.75884 15.2273 2.76219 15.2916 2.82966 15.4374C2.99709 15.799 3.26984 15.9778 3.68487 15.9981C4.14217 16.0204 4.45495 15.8493 4.63809 15.4766L4.73209 15.2853L4.74182 13.8903L4.75158 12.4953H4.99959H5.2476L5.25736 13.8903C5.26669 15.2273 5.27004 15.2916 5.33752 15.4374C5.50494 15.799 5.77769 15.9778 6.19273 15.9981C6.65003 16.0204 6.9628 15.8493 7.14595 15.4766L7.23994 15.2853L7.24967 13.8903L7.25943 12.4953L7.61749 12.4951C8.01115 12.4948 8.10642 12.4604 8.22977 12.2734C8.35085 12.0899 8.32146 11.9609 7.80899 10.4254C7.54262 9.62746 7.32822 8.97132 7.3325 8.96735C7.33674 8.96341 7.52834 9.20091 7.75823 9.49521C7.98811 9.78949 8.23582 10.0984 8.30869 10.1817C8.49283 10.3921 8.71549 10.4898 9.01215 10.4901C9.43147 10.4907 9.75147 10.2796 9.93107 9.88411C10.0273 9.67217 10.0222 9.3229 9.91953 9.10267C9.80487 8.85665 8.02603 6.51707 7.68035 6.15768C6.94187 5.38987 6.03035 5.00511 4.97013 5.0137C4.76566 5.01537 4.48903 5.03652 4.35541 5.06071Z" fill="white"/>
</svg>
