<svg width="20" height="20" viewBox="0 0 20 20" fill="none" xmlns="http://www.w3.org/2000/svg">
<path d="M4.55838 8.95841C3.96671 8.95841 3.36671 8.74175 2.90838 8.30008C1.37505 6.84175 0.758381 5.25008 1.11671 3.69175C1.54171 1.85841 3.15005 1.04175 4.55838 1.04175C5.96671 1.04175 7.58338 1.86675 8.00005 3.69175C8.35838 5.25008 7.73338 6.84175 6.20838 8.30008C5.75005 8.74175 5.15838 8.95841 4.55838 8.95841ZM2.33338 3.97508C2.01671 5.36675 2.94171 6.60008 3.77505 7.39175C4.21671 7.81675 4.90838 7.80841 5.35005 7.39175C6.18338 6.60008 7.10838 5.36675 6.78338 3.96675C6.50005 2.73341 5.40838 2.29175 4.56671 2.29175C3.71671 2.29175 2.62505 2.73341 2.33338 3.97508Z" fill="white"/>
<path d="M4.59163 5.16667C4.1333 5.16667 3.7583 4.79167 3.7583 4.33333C3.7583 3.875 4.12497 3.5 4.59163 3.5H4.59997C5.0583 3.5 5.4333 3.875 5.4333 4.33333C5.4333 4.79167 5.0583 5.16667 4.59163 5.16667Z" fill="white"/>
<path d="M15.4081 18.9584C14.8165 18.9584 14.2165 18.7418 13.7498 18.3001C12.2081 16.8418 11.5831 15.2501 11.9498 13.6834C12.3748 11.8584 13.9915 11.0334 15.4081 11.0334C16.8248 11.0334 18.4415 11.8584 18.8665 13.6834C19.2248 15.2418 18.5998 16.8418 17.0581 18.2918C16.5998 18.7418 16.0081 18.9584 15.4081 18.9584ZM15.4081 12.2918C14.5581 12.2918 13.4581 12.7334 13.1665 13.9751C12.8415 15.3668 13.7748 16.6084 14.6081 17.4001C15.0498 17.8251 15.7498 17.8251 16.1998 17.4001C17.0331 16.6084 17.9665 15.3751 17.6415 13.9834C17.3665 12.7334 16.2665 12.2918 15.4081 12.2918Z" fill="white"/>
<path d="M15.4417 15.1667C14.9834 15.1667 14.6084 14.7917 14.6084 14.3333C14.6084 13.875 14.9751 13.5 15.4417 13.5H15.4501C15.9084 13.5 16.2834 13.875 16.2834 14.3333C16.2834 14.7917 15.9001 15.1667 15.4417 15.1667Z" fill="white"/>
<path d="M10 16.4584H7.7667C6.80003 16.4584 5.95837 15.8751 5.62503 14.9751C5.28337 14.0751 5.53337 13.0834 6.25837 12.4417L12.9167 6.61675C13.3167 6.26675 13.325 5.79175 13.2084 5.46675C13.0834 5.14175 12.7667 4.79175 12.2334 4.79175H10C9.65836 4.79175 9.37503 4.50841 9.37503 4.16675C9.37503 3.82508 9.65836 3.54175 10 3.54175H12.2334C13.2 3.54175 14.0417 4.12508 14.375 5.02508C14.7167 5.92508 14.4667 6.91675 13.7417 7.55841L7.08337 13.3834C6.68337 13.7334 6.67503 14.2084 6.7917 14.5334C6.9167 14.8584 7.23336 15.2084 7.7667 15.2084H10C10.3417 15.2084 10.625 15.4917 10.625 15.8334C10.625 16.1751 10.3417 16.4584 10 16.4584Z" fill="white"/>
<path d="M10 16.4584H7.7667C6.80003 16.4584 5.95837 15.8751 5.62503 14.9751C5.28337 14.0751 5.53337 13.0834 6.25837 12.4417L12.9167 6.61675C13.3167 6.26675 13.325 5.79175 13.2084 5.46675C13.0834 5.14175 12.7667 4.79175 12.2334 4.79175H10C9.65836 4.79175 9.37503 4.50841 9.37503 4.16675C9.37503 3.82508 9.65836 3.54175 10 3.54175H12.2334C13.2 3.54175 14.0417 4.12508 14.375 5.02508C14.7167 5.92508 14.4667 6.91675 13.7417 7.55841L7.08337 13.3834C6.68337 13.7334 6.67503 14.2084 6.7917 14.5334C6.9167 14.8584 7.23336 15.2084 7.7667 15.2084H10C10.3417 15.2084 10.625 15.4917 10.625 15.8334C10.625 16.1751 10.3417 16.4584 10 16.4584Z" fill="white"/>
</svg>
