<svg width="14" height="14" viewBox="0 0 14 14" fill="none" xmlns="http://www.w3.org/2000/svg">
<g clip-path="url(#clip0_26_4248)">
<path d="M7.00008 1.16675C4.74258 1.16675 2.91675 2.99258 2.91675 5.25008C2.91675 7.68258 5.49508 11.0367 6.55675 12.3142C6.79008 12.5942 7.21592 12.5942 7.44925 12.3142C8.50508 11.0367 11.0834 7.68258 11.0834 5.25008C11.0834 2.99258 9.25758 1.16675 7.00008 1.16675ZM7.00008 6.70842C6.19508 6.70842 5.54175 6.05508 5.54175 5.25008C5.54175 4.44508 6.19508 3.79175 7.00008 3.79175C7.80508 3.79175 8.45842 4.44508 8.45842 5.25008C8.45842 6.05508 7.80508 6.70842 7.00008 6.70842Z" fill="#E94057"/>
</g>
<defs>
<clipPath id="clip0_26_4248">
<rect width="14" height="14" fill="white"/>
</clipPath>
</defs>
</svg>
