<svg width="10" height="16" viewBox="0 0 10 16" fill="none" xmlns="http://www.w3.org/2000/svg">
<path d="M2.9786 1.98677C2.9786 1.10419 3.64088 0.254084 4.48622 0.0515989C4.92751 -0.0540879 5.49311 0.00605636 5.88274 0.200155C6.70116 0.607833 7.16785 1.59253 6.94531 2.4423C6.65986 3.53218 5.59398 4.17826 4.50169 3.92352C3.64348 3.72334 2.9786 2.87788 2.9786 1.98677Z" fill="white"/>
<path d="M2.49307 6.07237C2.92136 5.54701 3.57946 5.16904 4.28411 5.04377C4.37401 5.0278 4.73628 5.01931 5.08917 5.02489C5.67094 5.03415 5.75911 5.04347 6.0347 5.1251C6.61445 5.29681 7.13736 5.64321 7.50186 6.09713C7.76131 6.42014 9.38969 8.95856 9.46844 9.16268C9.64015 9.60788 9.43848 10.1467 9.01472 10.3749C8.75324 10.5157 8.42221 10.529 8.15746 10.4093C7.89244 10.2895 7.77323 10.1711 7.49963 9.75581L7.26872 9.40536L7.25954 12.3453L7.25039 15.2853L7.15546 15.4766C6.97051 15.8493 6.65463 16.0204 6.19281 15.9981C5.77367 15.9778 5.49821 15.799 5.32913 15.4374C5.26031 15.2903 5.25771 15.2319 5.24835 13.6397L5.2387 11.9941H4.98786H4.73702L4.72737 13.6397L4.71771 15.2853L4.62278 15.4766C4.43783 15.8493 4.12195 16.0204 3.66013 15.9981C3.24099 15.9778 2.96553 15.799 2.79645 15.4374C2.72608 15.2869 2.72523 15.2544 2.71618 12.3498L2.707 9.41425L2.44127 9.81164C2.27415 10.0616 2.12718 10.2421 2.04519 10.2983C1.3793 10.7543 0.510289 10.3482 0.454232 9.55492C0.442616 9.3909 0.455042 9.29684 0.504953 9.17067C0.588734 8.95886 2.24821 6.37276 2.49307 6.07237Z" fill="white"/>
</svg>
