<svg width="24" height="24" viewBox="0 0 24 24" fill="none" xmlns="http://www.w3.org/2000/svg">
<path d="M9.9786 5.98677C9.9786 5.10419 10.6409 4.25408 11.4862 4.0516C11.9275 3.94591 12.4931 4.00606 12.8827 4.20016C13.7012 4.60783 14.1679 5.59253 13.9453 6.4423C13.6599 7.53218 12.594 8.17826 11.5017 7.92352C10.6435 7.72334 9.9786 6.87788 9.9786 5.98677Z" fill="#242424"/>
<path d="M9.49307 10.0724C9.92136 9.54701 10.5795 9.16904 11.2841 9.04377C11.374 9.0278 11.7363 9.01931 12.0892 9.02489C12.6709 9.03415 12.7591 9.04347 13.0347 9.1251C13.6144 9.29681 14.1374 9.64321 14.5019 10.0971C14.7613 10.4201 16.3897 12.9586 16.4684 13.1627C16.6402 13.6079 16.4385 14.1467 16.0147 14.3749C15.7532 14.5157 15.4222 14.529 15.1575 14.4093C14.8924 14.2895 14.7732 14.1711 14.4996 13.7558L14.2687 13.4054L14.2595 16.3453L14.2504 19.2853L14.1555 19.4766C13.9705 19.8493 13.6546 20.0204 13.1928 19.9981C12.7737 19.9778 12.4982 19.799 12.3291 19.4374C12.2603 19.2903 12.2577 19.2319 12.2484 17.6397L12.2387 15.9941H11.9879H11.737L11.7274 17.6397L11.7177 19.2853L11.6228 19.4766C11.4378 19.8493 11.122 20.0204 10.6601 19.9981C10.241 19.9778 9.96553 19.799 9.79645 19.4374C9.72608 19.2869 9.72523 19.2544 9.71618 16.3498L9.707 13.4143L9.44127 13.8116C9.27415 14.0616 9.12718 14.2421 9.04519 14.2983C8.3793 14.7543 7.51029 14.3482 7.45423 13.5549C7.44262 13.3909 7.45504 13.2968 7.50495 13.1707C7.58873 12.9589 9.24821 10.3728 9.49307 10.0724Z" fill="#242424"/>
</svg>
