<svg width="24" height="24" viewBox="0 0 24 24" fill="none" xmlns="http://www.w3.org/2000/svg">
<path d="M14.9302 22.5H9.06977C3.76605 22.5 1.5 20.234 1.5 14.9302V9.06977C1.5 3.76605 3.76605 1.5 9.06977 1.5H14.9302C20.234 1.5 22.5 3.76605 22.5 9.06977V14.9302C22.5 20.234 20.234 22.5 14.9302 22.5ZM9.06977 2.96512C4.56698 2.96512 2.96512 4.56698 2.96512 9.06977V14.9302C2.96512 19.433 4.56698 21.0349 9.06977 21.0349H14.9302C19.433 21.0349 21.0349 19.433 21.0349 14.9302V9.06977C21.0349 4.56698 19.433 2.96512 14.9302 2.96512H9.06977Z" fill="white"/>
<path d="M9.57749 7.68186C9.50247 7.34231 9.40437 7.12938 9.2197 6.89343C8.8446 6.39274 8.26175 6.13953 7.51732 6.13953C6.84214 6.13953 6.25929 6.35246 5.86111 6.73804C5.40521 7.18693 5.16284 7.84875 5.16284 8.63142C5.16284 9.40259 5.40521 10.0759 5.83225 10.5075C6.24198 10.9219 6.83637 11.1406 7.54041 11.1406C8.23867 11.1406 8.79844 10.9219 9.15623 10.5133C9.3986 10.2313 9.52556 9.94931 9.6352 9.46014L8.43488 9.28173C8.40025 9.52344 8.35986 9.63854 8.26175 9.77666C8.0944 10.0069 7.82317 10.1392 7.50578 10.1392C6.7902 10.1392 6.36317 9.56948 6.36317 8.63142C6.36317 7.68186 6.77289 7.12938 7.47693 7.12938C7.97321 7.12938 8.27907 7.38835 8.38871 7.91205L9.57749 7.68186Z" fill="white"/>
<path d="M12.7902 11.0312C13.2519 11.0312 13.5347 11.0428 13.7482 11.0715V9.96657C13.477 10.0011 13.2808 10.0069 12.7902 10.0069H11.3937V7.1524C11.3937 6.70351 11.3995 6.54237 11.4399 6.24312H10.1818C10.2165 6.51935 10.228 6.76682 10.228 7.16966V10.2083C10.228 10.5939 10.2165 10.8471 10.1818 11.0485C10.4011 11.037 10.6377 11.0312 11.0359 11.0312H12.7902Z" fill="white"/>
<path d="M8.4756 12.9573C8.51023 13.2162 8.52177 13.3946 8.52177 13.8263V15.806C8.52177 16.5311 8.19283 16.8764 7.50034 16.8764C6.82516 16.8764 6.49622 16.5311 6.49622 15.806V13.8263C6.49622 13.4004 6.50776 13.1702 6.54239 12.9573H5.2959C5.33052 13.176 5.34206 13.4292 5.34206 13.8263V15.7945C5.34206 16.439 5.51519 16.9397 5.84989 17.2965C6.19614 17.6591 6.77899 17.8605 7.49457 17.8605C8.88533 17.8605 9.67593 17.1181 9.67593 15.806V13.8263C9.67593 13.4119 9.68747 13.2047 9.72209 12.9573H8.4756Z" fill="white"/>
<path d="M12.8482 17.7454C13.8524 17.7454 14.441 17.2562 14.441 16.4275C14.441 16.0477 14.314 15.7369 14.0659 15.5182C13.8985 15.3743 13.7485 15.3053 13.4657 15.242C13.7023 15.1557 13.8062 15.0981 13.9331 14.9888C14.1524 14.7931 14.2678 14.5169 14.2678 14.1658C14.2678 13.4061 13.7196 12.9573 12.7848 12.9573H11.2728C10.7996 12.9573 10.7188 12.9573 10.4245 12.94C10.4591 13.2162 10.4707 13.4637 10.4707 13.7687V16.9167C10.4707 17.3195 10.4591 17.5152 10.4245 17.7627C10.6726 17.7511 10.84 17.7454 11.2786 17.7454H12.8482ZM11.6017 14.8046V13.9011H12.6059C12.9348 13.9011 13.1137 14.0622 13.1137 14.3442C13.1137 14.6262 12.9233 14.8046 12.6174 14.8046H11.6017ZM11.6017 15.7254H12.6578C13.0271 15.7254 13.2464 15.9211 13.2464 16.2549C13.2464 16.5944 13.0271 16.7958 12.6636 16.7958H11.6017V15.7254Z" fill="white"/>
<path d="M14.8788 16.3009C14.9192 16.5656 14.9481 16.698 15.0058 16.8361C15.127 17.1641 15.3405 17.4116 15.629 17.5727C15.9407 17.7511 16.4254 17.8547 16.9159 17.8547C17.5911 17.8547 18.0989 17.6878 18.4336 17.3656C18.6991 17.1066 18.8376 16.7383 18.8376 16.3066C18.8376 15.7772 18.6298 15.3916 18.2143 15.1326C17.9951 14.9945 17.7181 14.8967 17.2795 14.8046C16.5985 14.6665 16.5985 14.6665 16.4831 14.6147C16.2984 14.5284 16.2119 14.4075 16.2119 14.2464C16.2119 13.9816 16.4716 13.7917 16.8236 13.7917C17.2622 13.7917 17.4699 13.9471 17.5392 14.3212L18.7626 14.1888C18.6875 13.8608 18.6183 13.6881 18.474 13.4982C18.1624 13.0666 17.6026 12.8422 16.8698 12.8422C15.7329 12.8422 15.0173 13.4004 15.0173 14.2867C15.0173 14.7528 15.2135 15.1384 15.5771 15.3916C15.7906 15.5412 15.9753 15.6103 16.5062 15.7254C17.1064 15.8635 17.2506 15.9038 17.3718 15.9613C17.5218 16.0304 17.6142 16.1858 17.6142 16.3642C17.6142 16.6865 17.3487 16.8821 16.9044 16.8821C16.6101 16.8821 16.3677 16.7843 16.2292 16.6117C16.1426 16.4966 16.1022 16.393 16.0792 16.1858L14.8788 16.3009Z" fill="white"/>
</svg>
