<svg width="20" height="20" viewBox="0 0 20 20" fill="none" xmlns="http://www.w3.org/2000/svg">
<path d="M14.1665 17.7082H5.83317C2.7915 17.7082 1.0415 15.9582 1.0415 12.9165V7.08317C1.0415 4.0415 2.7915 2.2915 5.83317 2.2915H14.1665C17.2082 2.2915 18.9582 4.0415 18.9582 7.08317V12.9165C18.9582 15.9582 17.2082 17.7082 14.1665 17.7082ZM5.83317 3.5415C3.44984 3.5415 2.2915 4.69984 2.2915 7.08317V12.9165C2.2915 15.2998 3.44984 16.4582 5.83317 16.4582H14.1665C16.5498 16.4582 17.7082 15.2998 17.7082 12.9165V7.08317C17.7082 4.69984 16.5498 3.5415 14.1665 3.5415H5.83317Z" fill="white"/>
<path d="M9.99998 10.725C9.29998 10.725 8.59165 10.5083 8.04998 10.0666L5.44164 7.98331C5.17498 7.76664 5.12498 7.37497 5.34165 7.10831C5.55831 6.84164 5.94998 6.79164 6.21665 7.00831L8.82497 9.09164C9.45831 9.59998 10.5333 9.59998 11.1666 9.09164L13.775 7.00831C14.0416 6.79164 14.4416 6.83331 14.65 7.10831C14.8666 7.37497 14.825 7.77498 14.55 7.98331L11.9416 10.0666C11.4083 10.5083 10.7 10.725 9.99998 10.725Z" fill="white"/>
</svg>
