<svg width="22" height="22" viewBox="0 0 22 22" fill="none" xmlns="http://www.w3.org/2000/svg">
<path d="M11.0183 20.9092C10.1108 20.9092 9.23081 20.5425 8.58914 19.9008C7.94748 19.2592 7.58081 18.3792 7.58081 17.4717H8.95581C8.95581 18.0125 9.17581 18.5442 9.56081 18.9292C9.94581 19.3142 10.4775 19.5342 11.0183 19.5342C12.155 19.5342 13.0808 18.6083 13.0808 17.4717H14.4558C14.4558 19.3692 12.9158 20.9092 11.0183 20.9092Z" fill="white"/>
<path d="M11.0183 18.8193C8.88246 18.8193 6.74663 18.4801 4.72079 17.8018C3.95079 17.5359 3.36413 16.9951 3.10746 16.2893C2.84163 15.5834 2.93329 14.8043 3.35496 14.1076L4.40913 12.3568C4.62913 11.9901 4.83079 11.2568 4.83079 10.8259V8.17676C4.83079 4.76676 7.6083 1.98926 11.0183 1.98926C14.4283 1.98926 17.2058 4.76676 17.2058 8.17676V10.8259C17.2058 11.2476 17.4075 11.9901 17.6275 12.3659L18.6725 14.1076C19.0666 14.7676 19.14 15.5651 18.8741 16.2893C18.6083 17.0134 18.0308 17.5634 17.3066 17.8018C15.29 18.4801 13.1541 18.8193 11.0183 18.8193ZM11.0183 3.36426C8.36913 3.36426 6.20579 5.51842 6.20579 8.17676V10.8259C6.20579 11.4951 5.93079 12.4851 5.59163 13.0626L4.53746 14.8134C4.33579 15.1526 4.28079 15.5101 4.39996 15.8126C4.50996 16.1243 4.78496 16.3626 5.16079 16.4909C8.99246 17.7743 13.0533 17.7743 16.885 16.4909C17.215 16.3809 17.4716 16.1334 17.5908 15.8034C17.71 15.4734 17.6825 15.1159 17.4991 14.8134L16.445 13.0626C16.0966 12.4668 15.8308 11.4859 15.8308 10.8168V8.17676C15.8308 5.51842 13.6766 3.36426 11.0183 3.36426Z" fill="white"/>
<path d="M12.7232 3.61179C12.6591 3.61179 12.5949 3.60262 12.5307 3.58429C12.2649 3.51095 12.0082 3.45595 11.7607 3.41929C10.9816 3.31845 10.2299 3.37345 9.52407 3.58429C9.2674 3.66679 8.9924 3.58429 8.81823 3.39179C8.64407 3.19929 8.58907 2.92429 8.6899 2.67679C9.06573 1.71429 9.9824 1.08179 11.0274 1.08179C12.0724 1.08179 12.9891 1.70512 13.3649 2.67679C13.4566 2.92429 13.4107 3.19929 13.2366 3.39179C13.0991 3.53845 12.9066 3.61179 12.7232 3.61179Z" fill="white"/>
</svg>
