<svg width="50" height="50" viewBox="0 0 50 50" fill="none" xmlns="http://www.w3.org/2000/svg">
<circle cx="25" cy="25" r="25" fill="white" fill-opacity="0.1"/>
<path opacity="0.4" d="M33.3331 22.6749V27.3249C33.3331 30.7416 32.2915 31.7832 28.8748 31.7832H23.2581V29.2666C23.2581 28.9499 22.9915 28.6832 22.6748 28.6832V21.3166C22.9915 21.3166 23.2581 21.0499 23.2581 20.7332V18.2166H28.8748C32.2915 18.2166 33.3331 19.2582 33.3331 22.6749Z" fill="white"/>
<path d="M30.3917 24.9166C30.5333 24.7833 30.5833 24.575 30.525 24.3917C30.4667 24.2 30.3083 24.0667 30.1083 24.0417L29.0417 23.8833C29 23.875 28.9667 23.85 28.95 23.8167L28.475 22.85C28.3917 22.675 28.2083 22.5667 28.0167 22.5667C27.8167 22.5667 27.6417 22.675 27.55 22.85L27.075 23.8167C27.0583 23.8583 27.0167 23.8833 26.975 23.8833L25.9083 24.0417C25.7167 24.0667 25.55 24.2083 25.4917 24.3917C25.4333 24.5833 25.4833 24.7833 25.625 24.9166L26.4 25.6667C26.4333 25.6917 26.4417 25.7416 26.4333 25.7833L26.25 26.8417C26.2167 27.0333 26.2917 27.2333 26.4583 27.3417C26.55 27.4083 26.65 27.4417 26.7583 27.4417C26.8417 27.4417 26.925 27.425 27 27.3833L27.9583 26.8833C27.9917 26.8667 28.0417 26.8667 28.075 26.8833L29.0333 27.3833C29.2083 27.475 29.4167 27.4583 29.575 27.3417C29.7333 27.225 29.8167 27.0333 29.7833 26.8333L29.6 25.775C29.5917 25.7333 29.6083 25.6917 29.6333 25.6583L30.3917 24.9166Z" fill="white"/>
<path d="M22.675 21.3166V28.6832C22.3584 28.6832 22.0917 28.9499 22.0917 29.2666V31.7832H21.125C17.8334 31.7832 16.75 30.7999 16.675 27.7332C16.6667 27.5749 16.7334 27.4249 16.8417 27.3166C16.95 27.1999 17.1084 27.1416 17.2584 27.1416C18.425 27.1416 19.3834 26.1832 19.3834 25.0082C19.3834 23.8332 18.425 22.8666 17.2584 22.8666C17.0917 22.8666 16.95 22.8082 16.8417 22.6916C16.7334 22.5832 16.6667 22.4249 16.675 22.2749C16.75 19.1999 17.8334 18.2166 21.125 18.2166H22.0917V20.7332C22.0917 21.0582 22.3584 21.3166 22.675 21.3166Z" fill="white"/>
</svg>
