<svg width="50" height="50" viewBox="0 0 50 50" fill="none" xmlns="http://www.w3.org/2000/svg">
<circle cx="25" cy="25" r="25" fill="white" fill-opacity="0.1"/>
<path opacity="0.4" d="M32.1834 22.0416C31.3084 18.1916 27.9501 16.4583 25.0001 16.4583C25.0001 16.4583 25.0001 16.4583 24.9917 16.4583C22.0501 16.4583 18.6834 18.1833 17.8084 22.0333C16.8334 26.3333 19.4667 29.9749 21.8501 32.2666C22.7334 33.1166 23.8667 33.5416 25.0001 33.5416C26.1334 33.5416 27.2667 33.1166 28.1417 32.2666C30.5251 29.9749 33.1584 26.3416 32.1834 22.0416Z" fill="white"/>
<path d="M25 26.2166C26.4497 26.2166 27.625 25.0413 27.625 23.5916C27.625 22.1418 26.4497 20.9666 25 20.9666C23.5503 20.9666 22.375 22.1418 22.375 23.5916C22.375 25.0413 23.5503 26.2166 25 26.2166Z" fill="white"/>
</svg>
