<svg width="48" height="48" viewBox="0 0 48 48" fill="none" xmlns="http://www.w3.org/2000/svg">
<rect x="0.5" y="0.5" width="47" height="47" rx="9.5" fill="white" fill-opacity="0.04" stroke="#4E4E4E"/>
<path d="M32.6201 25.07C32.2401 25.07 31.9201 24.78 31.8701 24.4C31.6301 22.14 30.4101 20.09 28.5301 18.79C28.1901 18.55 28.1101 18.09 28.3401 17.75C28.5801 17.41 29.0501 17.33 29.3801 17.56C31.6201 19.11 33.0601 21.55 33.3501 24.24C33.3901 24.65 33.1001 25.02 32.6801 25.07C32.6701 25.07 32.6401 25.07 32.6201 25.07Z" fill="white"/>
<path d="M15.4899 25.12C15.4599 25.12 15.4399 25.12 15.4099 25.12C14.9999 25.07 14.6999 24.7 14.7399 24.29C15.0099 21.6 16.4399 19.17 18.6499 17.6C18.9899 17.36 19.4599 17.44 19.6999 17.78C19.9399 18.12 19.8599 18.59 19.5199 18.83C17.6599 20.14 16.4599 22.19 16.2299 24.45C16.1999 24.83 15.8699 25.12 15.4899 25.12Z" fill="white"/>
<path d="M24.06 34.61C22.58 34.61 21.17 34.27 19.85 33.61C19.48 33.42 19.33 32.97 19.52 32.6C19.71 32.23 20.16 32.08 20.53 32.27C22.69 33.36 25.29 33.38 27.47 32.33C27.84 32.15 28.29 32.31 28.47 32.68C28.65 33.05 28.49 33.5 28.12 33.68C26.84 34.3 25.48 34.61 24.06 34.61Z" fill="white"/>
<path d="M24.0598 20.44C22.1098 20.44 20.5298 18.86 20.5298 16.91C20.5298 14.96 22.1098 13.38 24.0598 13.38C26.0098 13.38 27.5898 14.96 27.5898 16.91C27.5898 18.86 25.9998 20.44 24.0598 20.44ZM24.0598 14.89C22.9398 14.89 22.0298 15.8 22.0298 16.92C22.0298 18.04 22.9398 18.95 24.0598 18.95C25.1798 18.95 26.0898 18.04 26.0898 16.92C26.0898 15.8 25.1698 14.89 24.0598 14.89Z" fill="white"/>
<path d="M16.8298 32.67C14.8798 32.67 13.2998 31.09 13.2998 29.14C13.2998 27.2 14.8798 25.61 16.8298 25.61C18.7798 25.61 20.3598 27.19 20.3598 29.14C20.3598 31.08 18.7798 32.67 16.8298 32.67ZM16.8298 27.11C15.7098 27.11 14.7998 28.02 14.7998 29.14C14.7998 30.26 15.7098 31.17 16.8298 31.17C17.9498 31.17 18.8598 30.26 18.8598 29.14C18.8598 28.02 17.9498 27.11 16.8298 27.11Z" fill="white"/>
<path d="M31.1701 32.67C29.2201 32.67 27.6401 31.09 27.6401 29.14C27.6401 27.2 29.2201 25.61 31.1701 25.61C33.1201 25.61 34.7001 27.19 34.7001 29.14C34.6901 31.08 33.1101 32.67 31.1701 32.67ZM31.1701 27.11C30.0501 27.11 29.1401 28.02 29.1401 29.14C29.1401 30.26 30.0501 31.17 31.1701 31.17C32.2901 31.17 33.2001 30.26 33.2001 29.14C33.1901 28.02 32.2901 27.11 31.1701 27.11Z" fill="white"/>
</svg>
