<svg width="20" height="20" viewBox="0 0 20 20" fill="none" xmlns="http://www.w3.org/2000/svg">
<path d="M1.66686 18.9585C1.50853 18.9585 1.3502 18.9002 1.2252 18.7752C0.983529 18.5335 0.983529 18.1335 1.2252 17.8919L17.8919 1.2252C18.1335 0.983529 18.5335 0.983529 18.7752 1.2252C19.0169 1.46686 19.0169 1.86686 18.7752 2.10853L2.10853 18.7752C1.98353 18.9002 1.8252 18.9585 1.66686 18.9585Z" fill="white"/>
<path fill-rule="evenodd" clip-rule="evenodd" d="M10.5691 13.1543L10.5504 13.1446C10.443 13.0761 10.338 13.003 10.2346 12.9254C9.95793 12.7152 9.90341 12.3272 10.1134 12.0503C10.3233 11.7734 10.7115 11.7186 10.9882 11.9289C11.1111 12.0219 11.2389 12.1066 11.3683 12.1822C11.3894 12.1937 11.4081 12.2039 11.4268 12.2131L12.0185 11.6548C12.1015 11.572 12.1837 11.4961 12.2642 11.427C12.436 11.2804 12.6044 11.1647 12.7688 11.0798C13.227 10.7964 13.8105 10.7464 14.394 10.9881C14.6104 11.0798 14.844 11.2048 15.0938 11.3798L17.8608 13.3464C18.1684 13.5548 18.3938 13.8214 18.5273 14.1381C18.6518 14.4548 18.7104 14.7464 18.7104 15.0381C18.7104 15.4381 18.6184 15.8381 18.4434 16.2131C18.2685 16.5881 18.052 16.9131 17.7769 17.2131C17.3017 17.7381 16.7857 18.1131 16.1851 18.3548C15.6106 18.5881 14.9856 18.7131 14.3272 18.7131C13.3857 18.7131 12.3936 18.4881 11.3691 18.0548C10.3689 17.6298 10.1859 17.6048 9.20204 16.8964C9.05149 16.7855 8.90094 16.6726 8.75201 16.5577L8.73573 16.5631L8.64378 16.474C8.45172 16.3245 8.26129 16.1718 8.07249 16.0159C7.92844 15.9101 7.79498 15.81 7.67372 15.6881C7.4304 15.4403 7.43121 15.0042 7.67942 14.7603C7.92682 14.5164 8.31907 14.5178 8.56239 14.7657L8.77236 14.9714C9.15322 15.2891 9.54221 15.5927 9.93609 15.8798C10.8353 16.5381 10.9353 16.5131 11.8525 16.8964C13.2774 17.5048 14.6104 17.6464 15.7107 17.1881C15.7913 17.1548 15.8702 17.1181 15.9475 17.078C16.0435 17.0284 16.1363 16.9734 16.2275 16.9128C16.4488 16.7649 16.6563 16.5832 16.8525 16.3631C17.0437 16.1548 17.1934 15.9298 17.3188 15.6631C17.4189 15.4548 17.4685 15.2381 17.4685 15.0214C17.4685 14.9368 17.4587 14.8522 17.4343 14.7633C17.4205 14.7122 17.4018 14.6596 17.3774 14.6048C17.3643 14.5785 17.344 14.5406 17.3049 14.4948C17.2691 14.4536 17.2187 14.4061 17.1438 14.3548L14.3769 12.3881C14.3012 12.3354 14.2296 12.2895 14.1604 12.2496C14.0766 12.2012 13.996 12.1617 13.9187 12.1298L13.856 12.1027C13.7144 12.0402 13.6257 12.0012 13.3767 12.1548C13.2107 12.2381 13.0601 12.3631 12.8941 12.5298L12.2602 13.1548C11.9355 13.4714 11.4358 13.5464 11.0517 13.4048L10.8271 13.3048C10.7872 13.2833 10.7433 13.2618 10.7017 13.2377L10.5691 13.1543Z" fill="white"/>
<path fill-rule="evenodd" clip-rule="evenodd" d="M17.0037 2.99598C16.2529 2.53422 15.2993 2.2915 14.1665 2.2915H5.83317C2.7915 2.2915 1.0415 4.0415 1.0415 7.08317V12.9165C1.0415 14.8254 1.73076 16.2256 2.99598 17.0037L3.90584 16.0938C2.82272 15.5827 2.2915 14.5305 2.2915 12.9165V7.08317C2.2915 4.69984 3.44984 3.5415 5.83317 3.5415H14.1665C14.9358 3.5415 15.5775 3.6622 16.0938 3.90584L17.0037 2.99598Z" fill="white"/>
<path fill-rule="evenodd" clip-rule="evenodd" d="M10.6233 9.37673L9.3406 10.6594C8.86972 10.5653 8.4208 10.3684 8.04998 10.066L5.44164 7.98266C5.17498 7.76599 5.12498 7.37433 5.34165 7.10766C5.55831 6.84099 5.94998 6.791 6.21665 7.00766L8.82497 9.091C9.30014 9.47238 10.0239 9.56763 10.6233 9.37673Z" fill="white"/>
</svg>
