<svg width="20" height="20" viewBox="0 0 20 20" fill="none" xmlns="http://www.w3.org/2000/svg">
<path d="M10 18.9584C9.44172 18.9584 8.87505 18.8167 8.37505 18.5251L3.42505 15.6667C2.42505 15.0834 1.80005 14.0084 1.80005 12.8501V7.1501C1.80005 5.99176 2.42505 4.91676 3.42505 4.33342L8.37505 1.4751C9.37505 0.891764 10.6167 0.891764 11.625 1.4751L16.575 4.33342C17.575 4.91676 18.2 5.99176 18.2 7.1501V12.8501C18.2 14.0084 17.575 15.0834 16.575 15.6667L11.625 18.5251C11.125 18.8167 10.5584 18.9584 10 18.9584ZM10 2.29175C9.65838 2.29175 9.30838 2.38342 9.00005 2.55842L4.05005 5.41675C3.43338 5.77508 3.05005 6.43343 3.05005 7.1501V12.8501C3.05005 13.5584 3.43338 14.2251 4.05005 14.5834L9.00005 17.4417C9.61672 17.8001 10.3834 17.8001 11 17.4417L15.95 14.5834C16.5667 14.2251 16.95 13.5667 16.95 12.8501V7.1501C16.95 6.44176 16.5667 5.77508 15.95 5.41675L11 2.55842C10.6917 2.38342 10.3417 2.29175 10 2.29175Z" fill="white"/>
<path d="M10 9.79176C8.58335 9.79176 7.43335 8.64174 7.43335 7.22508C7.43335 5.80841 8.58335 4.65845 10 4.65845C11.4167 4.65845 12.5667 5.80841 12.5667 7.22508C12.5667 8.64174 11.4167 9.79176 10 9.79176ZM10 5.90845C9.27502 5.90845 8.68335 6.50008 8.68335 7.22508C8.68335 7.95008 9.27502 8.54176 10 8.54176C10.725 8.54176 11.3167 7.95008 11.3167 7.22508C11.3167 6.50008 10.725 5.90845 10 5.90845Z" fill="white"/>
<path d="M13.3334 14.5084C12.9917 14.5084 12.7084 14.225 12.7084 13.8834C12.7084 12.7334 11.4917 11.7917 10.0001 11.7917C8.50841 11.7917 7.29175 12.7334 7.29175 13.8834C7.29175 14.225 7.00841 14.5084 6.66675 14.5084C6.32508 14.5084 6.04175 14.225 6.04175 13.8834C6.04175 12.0417 7.81675 10.5417 10.0001 10.5417C12.1834 10.5417 13.9584 12.0417 13.9584 13.8834C13.9584 14.225 13.6751 14.5084 13.3334 14.5084Z" fill="white"/>
</svg>
